<svg xmlns="http://www.w3.org/2000/svg" xmlns:xlink="http://www.w3.org/1999/xlink" xmlns:lucid="lucid" width="306" height="126"><g transform="translate(-233 -502)" lucid:page-tab-id="0_0"><path d="M240 559.17a6 6 0 0 1 6-6h199.9a6 6 0 0 1 6 6v36.77a6 6 0 0 1-6 6H246a6 6 0 0 1-6-6z" stroke="#000" stroke-opacity="0" stroke-width="3" fill="#fff" fill-opacity="0"/><use xlink:href="#a" transform="matrix(1,0,0,1,245,558.1696474756241) translate(0 43.333333333333286)"/><path d="M412.1 540c4.4 0 8 4.48 8 10s-3.6 10-8 10h-24c-4.43 0-8-4.48-8-10s3.57-10 8-10z" stroke="#090909" stroke-width="2" fill="#090909"/><path d="M472.1 520c4.4 0 8 4.48 8 10s-3.6 10-8 10h-24c-4.43 0-8-4.48-8-10s3.57-10 8-10z" stroke="#090909" stroke-width="2" fill="#ef8d22"/><path d="M422.6 550h1.5a6 6 0 0 0 6-6v-8a6 6 0 0 1 6-6h1.48" stroke="#090909" stroke-width="3" fill="none"/><path d="M422.64 551.5h-1.73l.2-1.5-.2-1.5h1.74zM439.08 530l.2 1.5h-1.74v-3h1.74z" stroke="#090909" stroke-width=".05" fill="#090909"/><path d="M512.1 560c4.4 0 8 4.48 8 10s-3.6 10-8 10h-24c-4.43 0-8-4.48-8-10s3.57-10 8-10z" stroke="#090909" stroke-width="2" fill="#ef8d22"/><path d="M422.6 550h31.5a6 6 0 0 1 6 6v8a6 6 0 0 0 6 6h11.48" stroke="#090909" stroke-width="3" fill="none"/><path d="M422.64 551.5h-1.73l.2-1.5-.2-1.5h1.74zM479.08 570l.2 1.5h-1.74v-3h1.74z" stroke="#090909" stroke-width=".05" fill="#090909"/><defs><path fill="#090909" d="M85-1421h1120v150H730V0H560v-1271H85v-150" id="b"/><path fill="#090909" d="M590 20c-303 0-460-177-460-491 0-284 120-462 341-519 147-38 285-13 415 43l-40 120c-74-25-146-38-217-38-227 3-340 127-340 359 0 249 115 388 358 391 63 0 125-11 188-33l40 113C780 2 685 20 590 20" id="c"/><path fill="#090909" d="M352-243v-123h198v355S407 12 318 12C102 12 40-115 40-347c0-248 72-355 273-355 105 0 237 29 237 29l-4 119s-120-13-211-13c-118 0-153 41-153 220 0 173 25 225 149 225 41 0 83-4 83-4v-117h-62" id="d"/><path fill="#090909" d="M67 0v-499h134v47s60-44 139-59v144c-88 17-139 43-139 43V0H67" id="e"/><path fill="#090909" d="M456-339v185c0 37 4 47 32 52l-4 114c-87 0-110-13-142-34 0 0-84 34-153 34C90 12 40-52 40-152c0-155 138-154 282-161 5-43-11-69-50-70-74 0-194 8-194 8l-4-114s133-22 206-22c112 0 176 44 176 172zM322-211c-59 8-147-14-147 55 0 35 13 53 41 53 41 0 106-15 106-15v-93" id="f"/><path fill="#090909" d="M67 210v-709h134v23s64-35 113-35c132 0 197 65 197 257C511-3 393 29 201 4v206H67zm221-598c-34 0-87 19-87 19v255s45 5 73 5c80 0 101-39 101-145 0-101-34-134-87-134" id="g"/><path fill="#090909" d="M201 0H67v-700h134v215s77-26 124-26c140 0 176 88 176 249V0H367v-262c0-75-10-124-70-124-33 0-96 12-96 12V0" id="h"/><g id="a"><use transform="matrix(0.027126736111111084,0,0,0.027126736111111084,0,0)" xlink:href="#b"/><use transform="matrix(0.027126736111111084,0,0,0.027126736111111084,32.823350694444414,0)" xlink:href="#c"/><use transform="matrix(0.05777777777777771,0,0,0.05777777777777771,59.977213541666615,0)" xlink:href="#d"/><use transform="matrix(0.05777777777777771,0,0,0.05777777777777771,94.35499131944435,0)" xlink:href="#e"/><use transform="matrix(0.05777777777777771,0,0,0.05777777777777771,115.15499131944432,0)" xlink:href="#f"/><use transform="matrix(0.05777777777777771,0,0,0.05777777777777771,145.66165798611095,0)" xlink:href="#g"/><use transform="matrix(0.05777777777777771,0,0,0.05777777777777771,177.20832465277758,0)" xlink:href="#h"/></g></defs></g></svg>